<svg width="17" height="17" viewBox="0 0 17 17" fill="none" xmlns="http://www.w3.org/2000/svg">
<path d="M6.52928 8.90051L14.0638 1.36595C14.4966 0.933226 14.9206 0.776595 15.2675 0.765404C15.6179 0.7541 15.9301 0.888842 16.153 1.11174C16.3759 1.33463 16.5106 1.64681 16.4993 1.9972C16.4881 2.3441 16.3315 2.76817 15.8988 3.2009L8.36424 10.7354L5.7953 11.4694L6.52928 8.90051Z" stroke="white"/>
<path d="M8 1.01236L2 1.01236C1.44772 1.01236 1 1.46007 1 2.01236V15.2647C1 15.817 1.44771 16.2647 2 16.2647H14.2355C14.7878 16.2647 15.2355 15.8166 15.2355 15.2643C15.2355 13.1681 15.2355 12.0896 15.2355 9.5" stroke="white" stroke-linecap="round"/>
</svg>
